<svg xmlns="http://www.w3.org/2000/svg">
	<symbol id="solar--round-alt-arrow-up-bold" viewBox="0 0 24 24">
		<path fill="currentColor" fill-rule="evenodd" d="M12 22c5.523 0 10-4.477 10-10S17.523 2 12 2S2 6.477 2 12s4.477 10 10 10m0-12.25a.75.75 0 0 1 .53.22l3 3a.75.75 0 1 1-1.06 1.06L12 11.56l-2.47 2.47a.75.75 0 0 1-1.06-1.06l3-3a.75.75 0 0 1 .53-.22" clip-rule="evenodd" />
	</symbol>
	<symbol id="solar--round-alt-arrow-down-bold" viewBox="0 0 24 24">
		<path fill="currentColor" fill-rule="evenodd" d="M12 22c5.523 0 10-4.477 10-10S17.523 2 12 2S2 6.477 2 12s4.477 10 10 10m3.53-12.03a.75.75 0 0 1 0 1.06l-3 3a.75.75 0 0 1-1.06 0l-3-3a.75.75 0 1 1 1.06-1.06L12 12.44l2.47-2.47a.75.75 0 0 1 1.06 0" clip-rule="evenodd" />
	</symbol>
	<symbol id="solar--minus-circle-bold" viewBox="0 0 24 24">
		<path fill="currentColor" fill-rule="evenodd" d="M22 12c0 5.523-4.477 10-10 10S2 17.523 2 12S6.477 2 12 2s10 4.477 10 10m-6.25 0a.75.75 0 0 1-.75.75H9a.75.75 0 0 1 0-1.5h6a.75.75 0 0 1 .75.75" clip-rule="evenodd" />
	</symbol>
	<symbol id="solar--record-bold" viewBox="0 0 24 24">
		<circle cx="12" cy="12" r="10" fill="currentColor" />
	</symbol>
	<symbol id="solar--hamburger-menu-linear" viewBox="0 0 24 24">
		<path fill="none" stroke="currentColor" stroke-linecap="round" stroke-width="1.5" d="M20 7H4m16 5H4m16 5H4" />
	</symbol>

	<symbol id="solar--home-2-bold" viewBox="0 0 24 24">
		<path fill="currentColor" fill-rule="evenodd" d="M2.52 7.823C2 8.77 2 9.915 2 12.203v1.522c0 3.9 0 5.851 1.172 7.063S6.229 22 10 22h4c3.771 0 5.657 0 6.828-1.212S22 17.626 22 13.725v-1.521c0-2.289 0-3.433-.52-4.381c-.518-.949-1.467-1.537-3.364-2.715l-2-1.241C14.111 2.622 13.108 2 12 2s-2.11.622-4.116 1.867l-2 1.241C3.987 6.286 3.038 6.874 2.519 7.823M11.25 18a.75.75 0 0 0 1.5 0v-3a.75.75 0 0 0-1.5 0z" clip-rule="evenodd" />
	</symbol>
	<symbol id="solar--restart-square-bold" viewBox="0 0 24 24">
		<path fill="currentColor" fill-rule="evenodd" d="M2 12c0-4.714 0-7.071 1.464-8.536C4.93 2 7.286 2 12 2s7.071 0 8.535 1.464C22 4.93 22 7.286 22 12s0 7.071-1.465 8.535C19.072 22 16.714 22 12 22s-7.071 0-8.536-1.465C2 19.072 2 16.714 2 12m13.935-6.408a.75.75 0 0 1 .467.694v2.715a.75.75 0 0 1-.75.75H13a.75.75 0 0 1-.537-1.274l.762-.78a4.17 4.17 0 0 0-4.224 1.089c-1.668 1.707-1.668 4.483 0 6.19a4.17 4.17 0 0 0 5.998 0a4.4 4.4 0 0 0 1.208-2.472c.058-.418.39-.77.812-.77c.406 0 .742.325.703.729a5.9 5.9 0 0 1-1.65 3.562a5.67 5.67 0 0 1-8.144 0c-2.237-2.29-2.237-5.997 0-8.287a5.67 5.67 0 0 1 6.437-1.208l.75-.768a.75.75 0 0 1 .82-.17" clip-rule="evenodd" />
	</symbol>
	<symbol id="solar--upload-square-bold" viewBox="0 0 24 24">
		<path fill="currentColor" fill-rule="evenodd" d="M2 12c0-4.714 0-7.071 1.464-8.536C4.93 2 7.286 2 12 2s7.071 0 8.535 1.464C22 4.93 22 7.286 22 12s0 7.071-1.465 8.535C19.072 22 16.714 22 12 22s-7.071 0-8.536-1.465C2 19.072 2 16.714 2 12m10 5.75a.75.75 0 0 0 .75-.75v-5.19l1.72 1.72a.75.75 0 1 0 1.06-1.06l-3-3a.75.75 0 0 0-1.06 0l-3 3a.75.75 0 1 0 1.06 1.06l1.72-1.72V17c0 .414.336.75.75.75m-4-10a.75.75 0 0 1 0-1.5h8a.75.75 0 0 1 0 1.5z" clip-rule="evenodd" />
	</symbol>
	<symbol id="solar--alt-arrow-down-outline" viewBox="0 0 24 24">
		<path fill="currentColor" fill-rule="evenodd" d="M4.43 8.512a.75.75 0 0 1 1.058-.081L12 14.012l6.512-5.581a.75.75 0 0 1 .976 1.138l-7 6a.75.75 0 0 1-.976 0l-7-6a.75.75 0 0 1-.081-1.057" clip-rule="evenodd" />
	</symbol>
	<symbol id="solar--tuning-square-2-bold" viewBox="0 0 24 24">
		<path fill="currentColor" d="M10 17.25a1.25 1.25 0 1 1 0-2.5a1.25 1.25 0 0 1 0 2.5M15.25 8a1.25 1.25 0 1 1-2.5 0a1.25 1.25 0 0 1 2.5 0" />
		<path fill="currentColor" fill-rule="evenodd" d="M2 12c0-4.714 0-7.071 1.464-8.536C4.93 2 7.286 2 12 2s7.071 0 8.535 1.464C22 4.93 22 7.286 22 12s0 7.071-1.465 8.535C19.072 22 16.714 22 12 22s-7.071 0-8.536-1.465C2 19.072 2 16.714 2 12m8 6.75a2.75 2.75 0 1 1 0-5.5a2.75 2.75 0 0 1 0 5.5M16.75 8a2.75 2.75 0 1 1-5.5 0a2.75 2.75 0 0 1 5.5 0m-3.5 8a.75.75 0 0 1 .75-.75h5a.75.75 0 0 1 0 1.5h-5a.75.75 0 0 1-.75-.75M10 7.25a.75.75 0 0 1 0 1.5H5a.75.75 0 0 1 0-1.5zM4.25 16a.75.75 0 0 1 .75-.75h1a.75.75 0 0 1 0 1.5H5a.75.75 0 0 1-.75-.75M19 7.25a.75.75 0 0 1 0 1.5h-1a.75.75 0 0 1 0-1.5z" clip-rule="evenodd" />
	</symbol>
	<symbol id="solar--notebook-square-bold" viewBox="0 0 24 24">
		<path fill="currentColor" fill-rule="evenodd" d="M3.172 2.172C2 3.343 2 5.229 2 9v4c0 3.771 0 5.657 1.172 6.828S6.229 21 10 21h4c3.771 0 5.657 0 6.828-1.172S22 16.771 22 13V9c0-3.771 0-5.657-1.172-6.828S17.771 1 14 1h-4C6.229 1 4.343 1 3.172 2.172m9.335 13.55l-.007.004V7.283l.022-.013c.553-.32 1.447-.796 2.178-1c.54-.149 1.24-.218 1.857-.248c.805-.04 1.443.623 1.443 1.43v5.459c0 .833-.68 1.504-1.51 1.566c-.506.038-1.052.101-1.49.208c-.837.205-1.883.716-2.493 1.037M6 7.496v5.415c0 .833.68 1.504 1.51 1.566c.506.038 1.052.101 1.49.208c.837.205 1.883.716 2.493 1.037l.007.004V7.311l-.035-.018C10.85 6.971 9.824 6.473 9 6.271c-.444-.109-1-.173-1.513-.21C6.665 6 6 6.673 6 7.496" clip-rule="evenodd" />
	</symbol>
	<symbol id="solar--question-circle-bold" viewBox="0 0 24 24">
		<path fill="currentColor" fill-rule="evenodd" d="M22 12c0 5.523-4.477 10-10 10S2 17.523 2 12S6.477 2 12 2s10 4.477 10 10M12 7.75c-.621 0-1.125.504-1.125 1.125a.75.75 0 0 1-1.5 0a2.625 2.625 0 1 1 4.508 1.829q-.138.142-.264.267a7 7 0 0 0-.571.617c-.22.282-.298.489-.298.662V13a.75.75 0 0 1-1.5 0v-.75c0-.655.305-1.186.614-1.583c.229-.294.516-.58.75-.814q.106-.105.193-.194A1.125 1.125 0 0 0 12 7.75M12 17a1 1 0 1 0 0-2a1 1 0 0 0 0 2" clip-rule="evenodd" />
	</symbol>
	<symbol id="solar--arrow-up-linear" viewBox="0 0 24 24">
		<path fill="none" stroke="currentColor" stroke-linecap="round" stroke-linejoin="round" stroke-width="1.5" d="M12 20V4m0 0l6 6m-6-6l-6 6" />
	</symbol>
	<symbol id="solar--square-sort-horizontal-bold" viewBox="0 0 24 24">
		<path fill="currentColor" fill-rule="evenodd" d="M2 12c0-4.714 0-7.071 1.464-8.536C4.93 2 7.286 2 12 2s7.071 0 8.535 1.464C22 4.93 22 7.286 22 12s0 7.071-1.465 8.535C19.072 22 16.714 22 12 22s-7.071 0-8.536-1.465C2 19.072 2 16.714 2 12m10.746.555a.75.75 0 0 1 1.008-1.11l2.75 2.5a.75.75 0 0 1 0 1.11l-2.75 2.5a.75.75 0 0 1-1.008-1.11l1.314-1.195H8a.75.75 0 0 1 0-1.5h6.06zm-1.441-6.06a.75.75 0 0 1-.05 1.06L9.94 8.75H16a.75.75 0 0 1 0 1.5H9.94l1.315 1.195a.75.75 0 0 1-1.01 1.11l-2.75-2.5a.75.75 0 0 1 0-1.11l2.75-2.5a.75.75 0 0 1 1.06.05" clip-rule="evenodd" />
	</symbol>
	<symbol id="solar--cloud-download-bold" viewBox="0 0 24 24">
		<path fill="currentColor" fill-rule="evenodd" d="M12 22c-1.886 0-2.828 0-3.414-.586S8 19.886 8 18s0-2.828.586-3.414S10.114 14 12 14s2.828 0 3.414.586S16 16.114 16 18s0 2.828-.586 3.414S13.886 22 12 22m1.805-3.084l-1.334 1.333a.667.667 0 0 1-.942 0l-1.334-1.333a.667.667 0 1 1 .943-.943l.195.195v-1.946a.667.667 0 0 1 1.334 0v1.946l.195-.195a.667.667 0 0 1 .943.943" clip-rule="evenodd" />
		<path fill="currentColor" d="M6.5 18v-.09c0-.865 0-1.659.087-2.304c.095-.711.32-1.463.938-2.08c.618-.619 1.37-.844 2.08-.94c.646-.086 1.44-.086 2.306-.086h.178c.866 0 1.66 0 2.305.087c.711.095 1.463.32 2.08.938c.619.618.844 1.37.94 2.08c.085.637.086 1.416.086 2.267c2.573-.55 4.5-2.812 4.5-5.52c0-2.47-1.607-4.572-3.845-5.337C17.837 4.194 15.415 2 12.476 2C9.32 2 6.762 4.528 6.762 7.647c0 .69.125 1.35.354 1.962a4.4 4.4 0 0 0-.83-.08C3.919 9.53 2 11.426 2 13.765S3.919 18 6.286 18z" />
	</symbol>
	<symbol id="solar--cloud-upload-bold" viewBox="0 0 24 24">
		<path fill="currentColor" d="M6.5 18v-.09c0-.865 0-1.659.087-2.304c.095-.711.32-1.463.938-2.08c.618-.619 1.37-.844 2.08-.94c.646-.086 1.44-.086 2.306-.086h.178c.866 0 1.66 0 2.305.087c.711.095 1.463.32 2.08.938c.619.618.844 1.37.94 2.08c.085.637.086 1.416.086 2.267c2.573-.55 4.5-2.812 4.5-5.52c0-2.47-1.607-4.572-3.845-5.337C17.837 4.194 15.415 2 12.476 2C9.32 2 6.762 4.528 6.762 7.647c0 .69.125 1.35.354 1.962a4.4 4.4 0 0 0-.83-.08C3.919 9.53 2 11.426 2 13.765S3.919 18 6.286 18z" />
		<path fill="currentColor" fill-rule="evenodd" d="M12 14c-1.886 0-2.828 0-3.414.586S8 16.114 8 18s0 2.828.586 3.414S10.114 22 12 22s2.828 0 3.414-.586S16 19.886 16 18s0-2.828-.586-3.414S13.886 14 12 14m1.805 3.084l-1.334-1.333a.667.667 0 0 0-.942 0l-1.334 1.333a.667.667 0 1 0 .943.943l.195-.195v1.946a.667.667 0 0 0 1.334 0v-1.946l.195.195a.667.667 0 0 0 .943-.943" clip-rule="evenodd" />
	</symbol>

	<symbol id="solar--link-bold" viewBox="0 0 24 24">
		<path fill="currentColor" d="M15.729 3.884c1.434-1.44 3.532-1.47 4.693-.304c1.164 1.168 1.133 3.28-.303 4.72l-2.423 2.433a.75.75 0 0 0 1.062 1.059l2.424-2.433c1.911-1.919 2.151-4.982.303-6.838c-1.85-1.857-4.907-1.615-6.82.304L9.819 7.692c-1.911 1.919-2.151 4.982-.303 6.837a.75.75 0 1 0 1.063-1.058c-1.164-1.168-1.132-3.28.303-4.72z" />
		<path fill="currentColor" d="M14.485 9.47a.75.75 0 0 0-1.063 1.06c1.164 1.168 1.133 3.279-.303 4.72l-4.847 4.866c-1.435 1.44-3.533 1.47-4.694.304c-1.164-1.168-1.132-3.28.303-4.72l2.424-2.433a.75.75 0 0 0-1.063-1.059l-2.424 2.433c-1.911 1.92-2.151 4.982-.303 6.838c1.85 1.858 4.907 1.615 6.82-.304l4.847-4.867c1.911-1.918 2.151-4.982.303-6.837" />
	</symbol>
</svg>